<?xml version="1.0" encoding="UTF-8"?>
<svg version="1.1" xmlns="http://www.w3.org/2000/svg" width="500" height="150">
<path d="M0 0 C-1.91409383 6.18234227 -4.24044654 11.98116846 -7.0546875 17.8046875 C-7.4381131 18.60931427 -7.8215387 19.41394104 -8.21658325 20.24295044 C-9.43114698 22.7893476 -10.65276901 25.33227549 -11.875 27.875 C-13.47830352 31.2257314 -15.07891339 34.57774715 -16.6796875 37.9296875 C-17.06058533 38.72582458 -17.44148315 39.52196167 -17.83392334 40.34222412 C-20.63021097 46.1956351 -23.3585963 52.07477918 -26 58 C-30.74655689 56.21692262 -33.45645332 53.89946494 -37.03515625 50.36328125 C-38.86923728 48.79381431 -38.86923728 48.79381431 -40.94921875 49.1015625 C-43.42446568 50.18595639 -45.52699704 51.52601266 -47.75 53.0625 C-48.54921875 53.61035156 -49.3484375 54.15820312 -50.171875 54.72265625 C-50.77515625 55.14417969 -51.3784375 55.56570312 -52 56 C-52.32613281 55.01 -52.65226562 54.02 -52.98828125 53 C-53.8875454 50.2721399 -54.80520065 47.55116689 -55.73046875 44.83203125 C-56.43576652 42.74730576 -57.07342101 40.7095895 -57.61328125 38.57421875 C-59.27891839 32.43297645 -63.99250429 29.04519096 -68.69921875 25.1015625 C-69.45847656 24.40804687 -70.21773437 23.71453125 -71 23 C-71 22.34 -71 21.68 -71 21 C-55.03595948 15.99393527 -39.04606534 11.07700047 -23.02563477 6.2545166 C-21.21513052 5.70931256 -19.40490923 5.16316803 -17.5949707 4.61608887 C-15.03941893 3.84408219 -12.48278218 3.07578491 -9.92578125 2.30859375 C-9.15309402 2.07464401 -8.3804068 1.84069427 -7.58430481 1.59965515 C-2.22915613 0 -2.22915613 0 0 0 Z " fill="#1F8FE8" transform="translate(319,38)"/>
<path d="M0 0 C7.05618839 4.19664488 10.19373829 9.69009067 12.83203125 17.31640625 C13.76775237 21.03802434 13.55646411 23.38163422 12.51953125 27.05078125 C11.51953125 28.05078125 11.51953125 28.05078125 8.37670898 28.16430664 C6.98550428 28.16414758 5.59429364 28.15845631 4.203125 28.1484375 C3.47207047 28.14702255 2.74101593 28.1456076 1.98780823 28.14414978 C-0.35582507 28.13853533 -2.69936414 28.12598047 -5.04296875 28.11328125 C-6.62825383 28.10826811 -8.21354041 28.10370488 -9.79882812 28.09960938 C-13.69274485 28.08856122 -17.5865908 28.07128697 -21.48046875 28.05078125 C-20.86987046 29.67616346 -20.24951313 31.29788204 -19.625 32.91796875 C-19.28057861 33.82144043 -18.93615723 34.72491211 -18.58129883 35.65576172 C-17.58534846 38.22912731 -17.58534846 38.22912731 -15.16796875 40.17578125 C-10.43126355 41.71796434 -5.20550638 41.67079415 -0.48046875 40.05078125 C0.76127921 38.15066355 0.76127921 38.15066355 1.51953125 36.05078125 C2.17953125 35.39078125 2.83953125 34.73078125 3.51953125 34.05078125 C6.53259082 34.43956313 7.91638436 35.31534999 10.51953125 37.05078125 C10.10259816 41.91500065 8.19204433 43.94954798 4.51953125 47.05078125 C-1.19892462 51.19666176 -7.72177537 50.62986147 -14.48046875 50.05078125 C-19.55762401 49.21144602 -22.53600807 47.41357213 -25.79296875 43.42578125 C-31.23290705 35.25846244 -32.76192346 26.79689095 -31.48046875 17.05078125 C-30.25233121 13.41342372 -28.80767006 10.11875368 -26.48046875 7.05078125 C-25.49046875 6.72078125 -24.50046875 6.39078125 -23.48046875 6.05078125 C-23.21234375 5.43203125 -22.94421875 4.81328125 -22.66796875 4.17578125 C-18.65178651 -3.01107118 -6.80738046 -2.60502906 0 0 Z M-17.54296875 10.17578125 C-19.88682932 13.3767367 -19.88682932 13.3767367 -21.48046875 19.05078125 C-13.89046875 19.05078125 -6.30046875 19.05078125 1.51953125 19.05078125 C1.84953125 18.06078125 2.17953125 17.07078125 2.51953125 16.05078125 C0.74510716 13.0526164 -1.01587446 10.51537554 -3.48046875 8.05078125 C-8.74279169 7.245756 -13.10747941 7.09809477 -17.54296875 10.17578125 Z " fill="#3472E2" transform="translate(202.48046875,45.94921875)"/>
<path d="M0 0 C5.18119331 3.12561118 5.18119331 3.12561118 6.46875 6.98828125 C7.12875 6.98828125 7.78875 6.98828125 8.46875 6.98828125 C12.15069141 13.64536282 13.29647735 19.38947278 12.46875 26.98828125 C11.46875 27.98828125 11.46875 27.98828125 8.41772461 28.10180664 C7.06883729 28.10164759 5.71994386 28.09595737 4.37109375 28.0859375 C3.30780602 28.08381508 3.30780602 28.08381508 2.22303772 28.08164978 C-0.04926712 28.07603568 -2.32147475 28.06348088 -4.59375 28.05078125 C-6.13085796 28.04576806 -7.66796745 28.04120484 -9.20507812 28.03710938 C-12.98050642 28.02606167 -16.75586171 28.00878766 -20.53125 27.98828125 C-20.22832031 29.26960938 -19.92539063 30.5509375 -19.61328125 31.87109375 C-19.4428833 32.59184082 -19.27248535 33.31258789 -19.09692383 34.05517578 C-18.38581061 36.48529854 -17.64228145 37.58092695 -15.53125 38.98828125 C-11.77243099 40.91848561 -8.73604282 41.4262805 -4.53125 40.98828125 C-0.85191733 39.27696373 1.2528852 37.37039068 3.46875 33.98828125 C5.44875 34.64828125 7.42875 35.30828125 9.46875 35.98828125 C10.28125 38.17578125 10.28125 38.17578125 10.46875 40.98828125 C8.40625 43.55078125 8.40625 43.55078125 5.46875 45.98828125 C4.664375 46.75140625 3.86 47.51453125 3.03125 48.30078125 C-3.64046774 51.4610686 -12.07816137 51.09490659 -19.09375 48.86328125 C-25.48088064 45.37939181 -28.34211011 40.50166095 -30.80078125 33.828125 C-33.1779043 24.58658246 -31.78002662 16.39099572 -27.53125 7.98828125 C-26.87125 7.98828125 -26.21125 7.98828125 -25.53125 7.98828125 C-25.325 7.41078125 -25.11875 6.83328125 -24.90625 6.23828125 C-20.011618 -1.77111656 -8.20185322 -3.27820985 0 0 Z M-19.5703125 13.06640625 C-20.8293924 15.22644578 -20.8293924 15.22644578 -20.53125 18.98828125 C-12.94125 18.98828125 -5.35125 18.98828125 2.46875 18.98828125 C1.32624293 11.50277701 1.32624293 11.50277701 -1.53125 8.98828125 C-9.06748918 6.47620152 -14.54380896 6.56805361 -19.5703125 13.06640625 Z " fill="#3788E1" transform="translate(152.53125,46.01171875)"/>
<path d="M0 0 C0.68102783 -0.00644531 1.36205566 -0.01289062 2.0637207 -0.01953125 C6.68718037 0.09747564 9.90492628 1.17484779 13.875 3.5 C13.875 4.16 13.875 4.82 13.875 5.5 C14.535 5.5 15.195 5.5 15.875 5.5 C15.875 6.16 15.875 6.82 15.875 7.5 C16.535 7.5 17.195 7.5 17.875 7.5 C22.8767051 14.50238715 21.875 20.77350819 21.875 29.5 C10.325 29.5 -1.225 29.5 -13.125 29.5 C-11.50812602 35.15905895 -10.59718232 38.08085887 -7.125 42.5 C-2.45638159 44.05620614 2.0188352 44.36451891 6.875 43.5 C9.7339084 41.5384848 11.80609465 39.26795528 13.875 36.5 C18.55192308 37.97692308 18.55192308 37.97692308 20.1875 40.625 C20.414375 41.24375 20.64125 41.8625 20.875 42.5 C17.14386094 47.47485209 13.20720354 51.65116099 6.84399414 52.89794922 C4.6918787 53.07140555 2.59599258 53.10692535 0.4375 53.0625 C-0.31241211 53.05154297 -1.06232422 53.04058594 -1.83496094 53.02929688 C-7.65028702 52.80104596 -12.02148549 51.90117878 -16.125 47.5 C-22.70574819 39.35078333 -23.78114373 30.71908961 -23.125 20.5 C-21.82801353 13.42552833 -18.55028348 6.9838308 -12.8125 2.5 C-8.73102078 0.19002323 -4.59445617 0.04185816 0 0 Z M-9.125 10.5 C-11.01947405 12.98294828 -12.34878718 15.46849164 -13.125 18.5 C-12.795 19.49 -12.465 20.48 -12.125 21.5 C-3.875 21.5 4.375 21.5 12.875 21.5 C10.98978197 13.10054798 10.98978197 13.10054798 4.875 8.5 C-0.16131749 6.7482374 -4.71766958 7.57113711 -9.125 10.5 Z " fill="#3EA1E2" transform="translate(448.125,40.5)"/>
<path d="M0 0 C9.6215625 -0.0309375 9.6215625 -0.0309375 19.4375 -0.0625 C21.46447021 -0.071604 23.49144043 -0.08070801 25.57983398 -0.09008789 C27.1769199 -0.09300703 28.77400655 -0.09555559 30.37109375 -0.09765625 C31.20805786 -0.10277222 32.04502197 -0.10788818 32.90734863 -0.11315918 C34.93858265 -0.11346924 36.96972471 -0.06240188 39 0 C40 1 40 1 40.0625 4.5625 C40.041875 5.696875 40.02125 6.83125 40 8 C37.18175808 9.40912096 34.82748718 9.11183553 31.6796875 9.09765625 C30.42285156 9.09443359 29.16601562 9.09121094 27.87109375 9.08789062 C26.55238281 9.07951172 25.23367187 9.07113281 23.875 9.0625 C22.53515789 9.05748489 21.195314 9.05292201 19.85546875 9.04882812 C16.57029343 9.03701095 13.28514119 9.01907501 10 9 C10 14.94 10 20.88 10 27 C12.78050781 26.96519531 12.78050781 26.96519531 15.6171875 26.9296875 C18.03645432 26.91093349 20.45572548 26.8927329 22.875 26.875 C24.09832031 26.85824219 25.32164063 26.84148438 26.58203125 26.82421875 C27.74863281 26.81777344 28.91523437 26.81132813 30.1171875 26.8046875 C31.19597168 26.79421387 32.27475586 26.78374023 33.38623047 26.77294922 C36 27 36 27 38 29 C38.3125 32 38.3125 32 38 35 C34.55366118 37.29755922 33.28931609 37.23643976 29.23828125 37.1953125 C28.12001953 37.18886719 27.00175781 37.18242188 25.84960938 37.17578125 C24.09874023 37.15064453 24.09874023 37.15064453 22.3125 37.125 C21.13365234 37.11597656 19.95480469 37.10695312 18.74023438 37.09765625 C15.82661974 37.07406423 12.91341108 37.0411454 10 37 C10.00523682 37.81267334 10.01047363 38.62534668 10.01586914 39.46264648 C10.03656994 43.12092322 10.04963803 46.77918767 10.0625 50.4375 C10.07087891 51.71689453 10.07925781 52.99628906 10.08789062 54.31445312 C10.09111328 55.52939453 10.09433594 56.74433594 10.09765625 57.99609375 C10.10289307 59.12200928 10.10812988 60.2479248 10.11352539 61.40795898 C10 64 10 64 9 65 C6.03 65 3.06 65 0 65 C0 43.55 0 22.1 0 0 Z " fill="#3897DA" transform="translate(44,30)"/>
<path d="M0 0 C1.134375 0.020625 2.26875 0.04125 3.4375 0.0625 C3.7675 1.7125 4.0975 3.3625 4.4375 5.0625 C5.30375 4.2375 6.17 3.4125 7.0625 2.5625 C11.75318475 -0.76205864 16.43669525 -0.75561934 22.04296875 -0.55859375 C27.23586623 0.39154514 30.38253459 2.81675506 33.4375 7.0625 C35.84655759 11.68336642 35.71226982 15.96581888 35.66796875 21.046875 C35.66751053 21.90307434 35.66705231 22.75927368 35.6665802 23.64141846 C35.66356845 25.44341424 35.6557145 27.24540767 35.64331055 29.04736328 C35.62497136 31.81682458 35.62280157 34.58595286 35.62304688 37.35546875 C35.61813445 39.10677375 35.61230734 40.85807647 35.60546875 42.609375 C35.60435593 43.44160583 35.6032431 44.27383667 35.60209656 45.13128662 C35.55357452 50.94642548 35.55357452 50.94642548 34.4375 52.0625 C32.625 52.1953125 32.625 52.1953125 30.4375 52.1875 C29.715625 52.19007812 28.99375 52.19265625 28.25 52.1953125 C26.4375 52.0625 26.4375 52.0625 25.4375 51.0625 C25.37366745 48.59989733 25.37121507 46.16470148 25.41015625 43.703125 C25.4228105 42.17968984 25.43517086 40.65625221 25.44726562 39.1328125 C25.47202507 36.72550838 25.49991878 34.31833138 25.53344727 31.91113281 C25.56376393 29.59178887 25.58146647 27.27260469 25.59765625 24.953125 C25.61111588 24.23835999 25.6245755 23.52359497 25.63844299 22.78717041 C25.65852544 18.76266054 25.33263334 15.64096008 23.4375 12.0625 C19.97483667 9.10905186 16.87645485 8.68051394 12.5 8.46875 C9.14247768 9.43530945 7.63195165 11.40609381 5.4375 14.0625 C4.78455527 17.41994887 4.78455527 17.41994887 5.01953125 21.0859375 C5.03134933 21.75033844 5.04316742 22.41473938 5.05534363 23.09927368 C5.09635703 25.21339458 5.17108764 27.32448293 5.25 29.4375 C5.31307915 31.54303841 5.368649 33.64827524 5.41252136 35.75430298 C5.45476039 37.67042267 5.51934961 39.58601141 5.58520508 41.50146484 C5.42312568 45.40905169 4.65047421 48.36516722 3.4375 52.0625 C1.10455225 52.10491723 -1.22952567 52.10342937 -3.5625 52.0625 C-5.19004644 50.43495356 -4.68987077 48.62111677 -4.69189453 46.375 C-4.69504669 45.37726563 -4.69819885 44.37953125 -4.70144653 43.3515625 C-4.6994223 42.26617187 -4.69739807 41.18078125 -4.6953125 40.0625 C-4.69626923 38.95648438 -4.69722595 37.85046875 -4.69821167 36.7109375 C-4.69889367 34.36718692 -4.69703804 32.02343447 -4.69287109 29.6796875 C-4.68752314 26.07808212 -4.69281547 22.47660147 -4.69921875 18.875 C-4.69855797 16.60416639 -4.69727682 14.33333286 -4.6953125 12.0625 C-4.69733673 10.97710937 -4.69936096 9.89171875 -4.70144653 8.7734375 C-4.69829437 7.77570312 -4.69514221 6.77796875 -4.69189453 5.75 C-4.69109894 4.86699219 -4.69030334 3.98398437 -4.68948364 3.07421875 C-4.46524926 -0.47817984 -3.69762366 0.06487059 0 0 Z " fill="#3580D9" transform="translate(331.5625,40.9375)"/>
<path d="M0 0 C4.08209213 2.92779267 6.46570739 6.12580222 8.2734375 10.87109375 C5.4609375 12.93359375 5.4609375 12.93359375 2.2734375 14.87109375 C1.2834375 14.54109375 0.2934375 14.21109375 -0.7265625 13.87109375 C-0.9946875 13.23171875 -1.2628125 12.59234375 -1.5390625 11.93359375 C-2.61339365 9.61026721 -2.61339365 9.61026721 -5.4140625 8.62109375 C-10.58052985 7.45132756 -14.14156254 7.15335792 -19.0390625 9.37109375 C-23.22650673 13.26639071 -23.55209701 17.19722048 -23.90625 22.625 C-24.06970994 29.29961422 -23.64581403 34.19577344 -19.6640625 39.74609375 C-16.13988507 42.2954987 -14.18670665 42.48476295 -9.94140625 42.23046875 C-5.60473187 41.52681083 -2.69794442 40.00437266 0.1484375 36.68359375 C0.5196875 36.08546875 0.8909375 35.48734375 1.2734375 34.87109375 C5.09770419 35.41741756 6.66575335 37.13192972 9.2734375 39.87109375 C8.03140055 41.33621501 6.77946694 42.7929502 5.5234375 44.24609375 C4.82734375 45.05820313 4.13125 45.8703125 3.4140625 46.70703125 C-0.41531299 50.57833421 -3.24215058 51.14946638 -8.71777344 51.30273438 C-21.38033284 51.33558148 -21.38033284 51.33558148 -26.21875 47.484375 C-33.16475193 40.05251283 -34.99283402 32.41629249 -34.6640625 22.43359375 C-33.91568523 13.77994391 -31.55592452 8.18275447 -25.1015625 2.37109375 C-18.87208611 -2.70268792 -7.31807324 -3.02997588 0 0 Z " fill="#3D9EE2" transform="translate(411.7265625,42.12890625)"/>
<path d="M0 0 C2.97 0 5.94 0 9 0 C9 19.8 9 39.6 9 60 C10.98 60 12.96 60 15 60 C16.36623674 62.73247348 16.128426 64.98198902 16 68 C13.68693264 70.31306736 9.10424822 69.98942335 6 70 C2.70952427 68.73981781 1.45635295 67.91486921 -0.11372375 64.76727295 C-1.11390802 61.64433822 -1.24728623 59.12573908 -1.24291992 55.84863281 C-1.24599655 54.63097229 -1.24907318 53.41331177 -1.25224304 52.15875244 C-1.24505753 50.85339539 -1.23787201 49.54803833 -1.23046875 48.203125 C-1.22927587 46.84503218 -1.22882402 45.48693853 -1.2290802 44.12884521 C-1.22752007 41.29108472 -1.21926318 38.45345123 -1.20581055 35.61572266 C-1.18875641 31.9715499 -1.1849983 28.32751565 -1.18575573 24.68330765 C-1.18548448 21.88328724 -1.18001168 19.08329734 -1.17275429 16.28328705 C-1.16801237 14.28401562 -1.16629044 12.28473776 -1.16459656 10.28546143 C-1.15821671 9.08040955 -1.15183685 7.87535767 -1.14526367 6.63378906 C-1.14145187 5.56743225 -1.13764008 4.50107544 -1.13371277 3.40240479 C-1 1 -1 1 0 0 Z " fill="#80A4ED" transform="translate(225,26)"/>
<path d="M0 0 C0.66 1.32 1.32 2.64 2 4 C2.825 3.34 3.65 2.68 4.5 2 C8.38240277 -0.61599996 11.40974961 -0.38252087 16 0 C16.66 0.33 17.32 0.66 18 1 C18 3.64 18 6.28 18 9 C14.52961917 10.73519041 10.56490137 10.85670281 6.75 11.40234375 C3.87100479 11.76845708 3.87100479 11.76845708 2 14 C1.76683317 16.56445937 1.65068621 19.02938164 1.62109375 21.59765625 C1.60409927 22.34712021 1.5871048 23.09658417 1.56959534 23.86875916 C1.51638658 26.26658685 1.47612878 28.6643965 1.4375 31.0625 C1.39362557 33.46408579 1.34697218 35.86553464 1.29469299 38.26695251 C1.26264708 39.76258602 1.23578492 41.25834084 1.21446228 42.75416565 C1.11173191 47.88826809 1.11173191 47.88826809 0 49 C-1.49738124 49.0979057 -2.99942892 49.12974864 -4.5 49.125 C-5.3146875 49.12757812 -6.129375 49.13015625 -6.96875 49.1328125 C-9 49 -9 49 -10 48 C-10.09304018 46.52645652 -10.11746265 45.04849409 -10.11352539 43.57202148 C-10.11344986 42.63112167 -10.11337433 41.69022186 -10.11329651 40.72080994 C-10.10813522 39.69790359 -10.10297394 38.67499725 -10.09765625 37.62109375 C-10.0962413 36.57929459 -10.09482635 35.53749542 -10.09336853 34.46412659 C-10.0877508 31.12188906 -10.0751953 27.77971743 -10.0625 24.4375 C-10.05748728 22.17773534 -10.05292398 19.91796963 -10.04882812 17.65820312 C-10.03777561 12.10544609 -10.02102024 6.55272775 -10 1 C-6.78548731 -0.60725635 -3.56387464 -0.05748185 0 0 Z " fill="#398ADD" transform="translate(101,46)"/>
<path d="M0 0 C0.66 0.33 1.32 0.66 2 1 C-5.52788776 7.5368213 -13.06103723 14.0674247 -20.625 20.5625 C-21.1917041 21.05008789 -21.7584082 21.53767578 -22.34228516 22.04003906 C-24.77650408 24.12734361 -27.20715866 26.15340782 -29.78515625 28.0625 C-33.24654948 31.09045598 -34.01754106 34.61792125 -35 39 C-35.25658318 41.87732437 -35.25658318 41.87732437 -35 44 C-35.99 44.495 -35.99 44.495 -37 45 C-39.66666667 37 -42.33333333 29 -45 21 C-44.26178513 20.87553497 -43.52357025 20.75106995 -42.76298523 20.62283325 C-40.14048232 20.03166758 -38.17163937 19.25649697 -35.79223633 18.03466797 C-34.99823929 17.63110077 -34.20424225 17.22753357 -33.38618469 16.81173706 C-32.54331406 16.37628571 -31.70044342 15.94083435 -30.83203125 15.4921875 C-29.03454177 14.57935508 -27.23701462 13.66659685 -25.43945312 12.75390625 C-22.61375392 11.30985185 -19.78942968 9.86316308 -16.96606445 8.41455078 C-14.23721477 7.01711852 -11.50366084 5.62925335 -8.76953125 4.2421875 C-7.49611626 3.58293777 -7.49611626 3.58293777 -6.19697571 2.91036987 C-5.41243515 2.51310699 -4.62789459 2.11584412 -3.81958008 1.70654297 C-3.12850662 1.35204071 -2.43743317 0.99753845 -1.72541809 0.6322937 C-1.15603012 0.42363678 -0.58664215 0.21497986 0 0 Z " fill="#263357" transform="translate(304,49)"/>
<path d="M0 0 C0.66 0 1.32 0 2 0 C3.32 2.64 4.64 5.28 6 8 C6.66 8 7.32 8 8 8 C8.04241723 10.33294775 8.04092937 12.66702567 8 15 C7.67 15.33 7.34 15.66 7 16 C4.69 16 2.38 16 0 16 C0 10.72 0 5.44 0 0 Z " fill="#6996EB" transform="translate(328,77)"/>
<path d="M0 0 C0.33 0 0.66 0 1 0 C1 5.94 1 11.88 1 18 C2.98 18 4.96 18 7 18 C8.36623674 20.73247348 8.128426 22.98198902 8 26 C7 27 7 27 3.9375 27.0625 C2.968125 27.041875 1.99875 27.02125 1 27 C0.11097088 20.95180188 -0.12348383 15.10776514 -0.0625 9 C-0.05798828 8.12988281 -0.05347656 7.25976562 -0.04882812 6.36328125 C-0.0371736 4.24215707 -0.01924357 2.1210689 0 0 Z " fill="#5B9BDD" transform="translate(233,68)"/>
<path d="M0 0 C3.5625 0.1875 3.5625 0.1875 5.5625 2.1875 C5.8125 5.6875 5.8125 5.6875 5.5625 9.1875 C3.5625 11.1875 3.5625 11.1875 0.625 11.5 C-2.4375 11.1875 -2.4375 11.1875 -4.375 10.125 C-6.06931173 7.03537273 -5.17701685 4.51532582 -4.4375 1.1875 C-3.4375 0.1875 -3.4375 0.1875 0 0 Z M-1.4375 2.1875 C-2.0975 3.5075 -2.7575 4.8275 -3.4375 6.1875 C-2.4475 7.6725 -2.4475 7.6725 -1.4375 9.1875 C-0.1175 8.8575 1.2025 8.5275 2.5625 8.1875 C2.8925 6.5375 3.2225 4.8875 3.5625 3.1875 C1.9125 2.8575 0.2625 2.5275 -1.4375 2.1875 Z " fill="#1B223A" transform="translate(320.4375,119.8125)"/>
<path d="M0 0 C2.49361571 1.20381448 4.68143083 2.45428722 7 4 C5.4972742 8.20763224 2.76667005 9.8027758 -1 12 C-1.66 12 -2.32 12 -3 12 C-2.40075776 7.80530429 -1.42500059 3.99000166 0 0 Z " fill="#3D97D6" transform="translate(271,80)"/>
<path d="M0 0 C2.31 0 4.62 0 7 0 C7.74438649 3.63922283 8.31065012 6.46124467 7 10 C6 11 6 11 2.9375 11.0625 C1.968125 11.041875 0.99875 11.02125 0 11 C0 7.37 0 3.74 0 0 Z M2 2 C2 2.66 2 3.32 2 4 C2.99 4 3.98 4 5 4 C5 3.34 5 2.68 5 2 C4.01 2 3.02 2 2 2 Z M2 6 C2 6.99 2 7.98 2 9 C3.32 8.67 4.64 8.34 6 8 C5.67 7.34 5.34 6.68 5 6 C4.01 6 3.02 6 2 6 Z " fill="#1C233C" transform="translate(154,120)"/>
<path d="M0 0 C2.31 0 4.62 0 7 0 C7.22174933 1.45635371 7.42698698 2.91522956 7.625 4.375 C7.74101562 5.18710938 7.85703125 5.99921875 7.9765625 6.8359375 C7.98429687 7.55007812 7.99203125 8.26421875 8 9 C6 11 6 11 2.875 11.125 C1.451875 11.063125 1.451875 11.063125 0 11 C0 7.37 0 3.74 0 0 Z M2 2 C2 2.66 2 3.32 2 4 C2.99 4 3.98 4 5 4 C5 3.34 5 2.68 5 2 C4.01 2 3.02 2 2 2 Z M2 6 C2 6.99 2 7.98 2 9 C2.99 9 3.98 9 5 9 C5 8.01 5 7.02 5 6 C4.01 6 3.02 6 2 6 Z " fill="#1E2641" transform="translate(249,120)"/>
<path d="M0 0 C0.66 0 1.32 0 2 0 C2 1.32 2 2.64 2 4 C3.32 4 4.64 4 6 4 C6 2.68 6 1.36 6 0 C6.99 0 7.98 0 9 0 C9 3.63 9 7.26 9 11 C8.01 11 7.02 11 6 11 C6 9.35 6 7.7 6 6 C4.68 6 3.36 6 2 6 C2 7.65 2 9.3 2 11 C1.34 11 0.68 11 0 11 C0 7.37 0 3.74 0 0 Z " fill="#1D2540" transform="translate(219,120)"/>
<path d="M0 0 C2.31 0 4.62 0 7 0 C8.125 4.75 8.125 4.75 7 7 C7.39938767 9.09821215 7.39938767 9.09821215 8 11 C7.01 11 6.02 11 5 11 C4.67 9.68 4.34 8.36 4 7 C3.34 7 2.68 7 2 7 C2 8.32 2 9.64 2 11 C1.34 11 0.68 11 0 11 C0 7.37 0 3.74 0 0 Z M2 2 C2 2.99 2 3.98 2 5 C3.32 4.67 4.64 4.34 6 4 C5.67 3.34 5.34 2.68 5 2 C4.01 2 3.02 2 2 2 Z " fill="#1B233B" transform="translate(332,120)"/>
<path d="M0 0 C1.98 0 3.96 0 6 0 C6.33 0.99 6.66 1.98 7 3 C5.35 2.67 3.7 2.34 2 2 C2 2.66 2 3.32 2 4 C3.32 4.33 4.64 4.66 6 5 C6.38218767 6.65614657 6.71395102 8.32457024 7 10 C6 11 6 11 2.9375 11.0625 C1.968125 11.041875 0.99875 11.02125 0 11 C-0.33 9.68 -0.66 8.36 -1 7 C0.32 7 1.64 7 3 7 C1.68 6.01 0.36 5.02 -1 4 C-0.67 2.68 -0.34 1.36 0 0 Z " fill="#1C233C" transform="translate(191,120)"/>
<path d="M0 0 C0.94875 0.04125 1.8975 0.0825 2.875 0.125 C3.535 1.445 4.195 2.765 4.875 4.125 C3.885 4.125 2.895 4.125 1.875 4.125 C1.875 3.465 1.875 2.805 1.875 2.125 C0.555 2.455 -0.765 2.785 -2.125 3.125 C-2.125 4.775 -2.125 6.425 -2.125 8.125 C-0.805 8.455 0.515 8.785 1.875 9.125 C1.875 8.465 1.875 7.805 1.875 7.125 C2.865 7.125 3.855 7.125 4.875 7.125 C4.215 8.445 3.555 9.765 2.875 11.125 C0 11.25 0 11.25 -3.125 11.125 C-5.125 9.125 -5.125 9.125 -5.375 5.625 C-5.05328869 1.12104166 -4.56738407 0.18269536 0 0 Z " fill="#1D243E" transform="translate(305.125,119.875)"/>
<path d="M0 0 C0.99 0 1.98 0 3 0 C3.50615298 1.26839526 4.00469099 2.53983102 4.5 3.8125 C4.7784375 4.52019531 5.056875 5.22789063 5.34375 5.95703125 C6 8 6 8 6 11 C5.01 10.67 4.02 10.34 3 10 C3 9.34 3 8.68 3 8 C1.68 8 0.36 8 -1 8 C-1 8.99 -1 9.98 -1 11 C-1.99 10.67 -2.98 10.34 -4 10 C-2.68 6.7 -1.36 3.4 0 0 Z M1 4 C2 6 2 6 2 6 Z " fill="#1E2540" transform="translate(237,120)"/>
<path d="M0 0 C0.99 0 1.98 0 3 0 C3.50615298 1.26839526 4.00469099 2.53983102 4.5 3.8125 C4.7784375 4.52019531 5.056875 5.22789063 5.34375 5.95703125 C6 8 6 8 6 11 C5.01 10.67 4.02 10.34 3 10 C3 9.34 3 8.68 3 8 C1.68 8 0.36 8 -1 8 C-1 8.99 -1 9.98 -1 11 C-1.99 10.67 -2.98 10.34 -4 10 C-2.68 6.7 -1.36 3.4 0 0 Z M1 4 C2 6 2 6 2 6 Z " fill="#1E2540" transform="translate(207,120)"/>
<path d="M0 0 C0.99 0.33 1.98 0.66 3 1 C3.94921875 3.28515625 3.94921875 3.28515625 4.6875 6.0625 C5.06455078 7.44115234 5.06455078 7.44115234 5.44921875 8.84765625 C5.63097656 9.55792969 5.81273437 10.26820313 6 11 C5.01 11 4.02 11 3 11 C3 10.01 3 9.02 3 8 C1.68 8 0.36 8 -1 8 C-1.33 8.99 -1.66 9.98 -2 11 C-2.66 11 -3.32 11 -4 11 C-3.5247412 9.35303396 -3.04468109 7.70745272 -2.5625 6.0625 C-2.29566406 5.14597656 -2.02882813 4.22945313 -1.75390625 3.28515625 C-1 1 -1 1 0 0 Z " fill="#1B223B" transform="translate(266,120)"/>
<path d="M0 0 C2.31 0 4.62 0 7 0 C7.625 2.375 7.625 2.375 8 5 C7.34 5.66 6.68 6.32 6 7 C4.68 7 3.36 7 2 7 C2 8.32 2 9.64 2 11 C1.34 11 0.68 11 0 11 C0 7.37 0 3.74 0 0 Z M2 2 C2 2.99 2 3.98 2 5 C2.99 5 3.98 5 5 5 C5 4.01 5 3.02 5 2 C4.01 2 3.02 2 2 2 Z " fill="#1F2843" transform="translate(346,120)"/>
<path d="M0 0 C0.66 0 1.32 0 2 0 C3.33333333 4 4.66666667 8 6 12 C4.02 12 2.04 12 0 12 C0 8.04 0 4.08 0 0 Z " fill="#99B7F1" transform="translate(328,81)"/>
<path d="M0 0 C0.99 0 1.98 0 3 0 C3.66 0.66 4.32 1.32 5 2 C5.33 1.34 5.66 0.68 6 0 C6.99 0.33 7.98 0.66 9 1 C7.68 4.3 6.36 7.6 5 11 C4.34 11 3.68 11 3 11 C2.01 7.37 1.02 3.74 0 0 Z " fill="#1C233C" transform="translate(167,120)"/>
<path d="M0 0 C2.64 0 5.28 0 8 0 C8 0.66 8 1.32 8 2 C7.01 2 6.02 2 5 2 C5 4.97 5 7.94 5 11 C4.34 11 3.68 11 3 11 C3 8.03 3 5.06 3 2 C2.01 2 1.02 2 0 2 C0 1.34 0 0.68 0 0 Z " fill="#222B49" transform="translate(277,120)"/>
<path d="M0 0 C2.31 0 4.62 0 7 0 C6.34 0.66 5.68 1.32 5 2 C4.01 2 3.02 2 2 2 C2.185625 2.598125 2.37125 3.19625 2.5625 3.8125 C3 6 3 6 2 9 C2.99 9.33 3.98 9.66 5 10 C3.35 10 1.7 10 0 10 C0 6.7 0 3.4 0 0 Z " fill="#242D4D" transform="translate(154,120)"/>
<path d="M0 0 C4.06540996 1.35513665 4.97300269 3.30796918 7 7 C6.75 9.375 6.75 9.375 6 11 C2 5.375 2 5.375 2 2 C1.34 2 0.68 2 0 2 C0 1.34 0 0.68 0 0 Z " fill="#4880E5" transform="translate(328,75)"/>
<path d="M0 0 C0.33 1.32 0.66 2.64 1 4 C2.65 2.68 4.3 1.36 6 0 C6.66 0.33 7.32 0.66 8 1 C7.0479279 2.00596297 6.08812654 3.00461563 5.125 4 C4.59132813 4.556875 4.05765625 5.11375 3.5078125 5.6875 C2 7 2 7 0 7 C0 4.69 0 2.38 0 0 Z " fill="#2F89E8" transform="translate(335,42)"/>
<path d="M0 0 C0.99 0 1.98 0 3 0 C2.67 2.31 2.34 4.62 2 7 C0.68 6.67 -0.64 6.34 -2 6 C-1.34 4.02 -0.68 2.04 0 0 Z " fill="#1A2037" transform="translate(237,120)"/>
<path d="M0 0 C0.99 0 1.98 0 3 0 C2.67 2.31 2.34 4.62 2 7 C0.68 6.67 -0.64 6.34 -2 6 C-1.34 4.02 -0.68 2.04 0 0 Z " fill="#1A2037" transform="translate(207,120)"/>
<path d="M0 0 C2.375 -0.125 2.375 -0.125 5 0 C7 2 7 2 7.125 4.625 C7.08375 5.40875 7.0425 6.1925 7 7 C6.34 7 5.68 7 5 7 C4.731875 6.21625 4.46375 5.4325 4.1875 4.625 C3.15185568 1.71885077 3.15185568 1.71885077 0 0 Z " fill="#232C4B" transform="translate(319,120)"/>
<path d="M0 0 C0.66 0 1.32 0 2 0 C2 0.99 2 1.98 2 3 C1.34 3 0.68 3 0 3 C0 3.99 0 4.98 0 6 C0.99 6.33 1.98 6.66 3 7 C1.35 6.67 -0.3 6.34 -2 6 C-1.34 4.02 -0.68 2.04 0 0 Z " fill="#202845" transform="translate(266,120)"/>
</svg>
