<?xml version="1.0" encoding="UTF-8"?>
<svg version="1.1" xmlns="http://www.w3.org/2000/svg" width="500" height="500">
<path d="M0 0 C-8.82385602 19.09852845 -17.77027759 38.13691681 -26.76516724 57.15536499 C-30.54097046 65.14052763 -34.30293569 73.13218178 -38.0625 81.125 C-38.39045563 81.82216125 -38.71841125 82.51932251 -39.05630493 83.23760986 C-40.70971831 86.75241441 -42.36297016 90.2672949 -44.01611328 93.78222656 C-47.00937625 100.14629777 -50.0042534 106.50960937 -52.99899292 112.87298584 C-54.66605988 116.41529349 -56.33302483 119.95764915 -58 123.5 C-58.66666618 124.9166669 -59.33333284 126.33333356 -60 127.75 C-60.33 128.45125 -60.66 129.1525 -61 129.875 C-78 166 -95 202.125 -112 238.25 C-112.49493202 239.30173149 -112.49493202 239.30173149 -112.99986267 240.37471008 C-113.66698514 241.79234406 -114.33410957 243.20997712 -115.00123596 244.62760925 C-116.66094485 248.15446851 -118.3206204 251.68134344 -119.98022461 255.20825195 C-123.06293433 261.75938376 -126.14595525 268.31036852 -129.23013306 274.86080933 C-130.6633965 277.90494895 -132.09647505 280.94917561 -133.52954102 283.9934082 C-134.20295203 285.42378987 -134.8764504 286.85413041 -135.55004883 288.28442383 C-140.05349383 297.84694112 -144.53606404 307.41897384 -149 317 C-152.09659663 316.40810285 -153.92856901 315.50964007 -156.328125 313.48046875 C-156.95468994 312.9589624 -157.58125488 312.43745605 -158.22680664 311.90014648 C-159.22828735 311.05238647 -159.22828735 311.05238647 -160.25 310.1875 C-165.75104124 305.61937283 -171.31303616 301.18897861 -177.0625 296.9375 C-182.90460177 292.60691149 -188.61739043 288.14793406 -194.27441406 283.57885742 C-199.7677413 279.15431863 -205.36396793 274.87275054 -210.97802734 270.60302734 C-216.38748964 266.48398781 -221.71736399 262.28083106 -227 258 C-232.97175834 261.8717421 -238.6708008 265.95930858 -244.25 270.375 C-245.82224691 271.6076256 -247.3951933 272.8393594 -248.96875 274.0703125 C-250.19464844 275.0298584 -250.19464844 275.0298584 -251.4453125 276.00878906 C-263.76498418 285.61116313 -276.19767313 295.04912945 -289 304 C-291.19871183 300.70193225 -292.16394299 297.52576664 -293.23974609 293.7668457 C-293.45484833 293.03086655 -293.66995056 292.29488739 -293.89157104 291.53660583 C-294.60701373 289.0843729 -295.31514118 286.63008695 -296.0234375 284.17578125 C-296.52941961 282.43728892 -297.03590936 280.69894427 -297.5428772 278.96073914 C-298.88749301 274.34626728 -300.22618065 269.73009747 -301.56335449 265.11346436 C-302.87682114 260.58073028 -304.19419121 256.04913316 -305.51171875 251.51757812 C-305.76976917 250.62915159 -306.0278196 249.74072506 -306.29368973 248.82537651 C-307.60179837 244.32453445 -308.91556821 239.82546474 -310.2399292 235.32937622 C-310.77184419 233.52124912 -311.30352131 231.71305203 -311.83496094 229.90478516 C-312.09758099 229.0112993 -312.36020103 228.11781345 -312.63077927 227.19725227 C-314.25266043 221.64778205 -315.80680064 216.08366064 -317.31440544 210.50209904 C-318.31295287 206.82358099 -319.34137949 203.15376874 -320.37404251 199.48470116 C-320.85166498 197.75858987 -321.31556034 196.02860952 -321.76429367 194.29476357 C-324.7695883 182.70666885 -327.6441202 176.67071041 -338 170 C-339.26836813 168.95949601 -340.52334106 167.90186407 -341.75 166.8125 C-342.28947266 166.34650391 -342.82894531 165.88050781 -343.38476562 165.40039062 C-344.18430664 164.70719727 -344.18430664 164.70719727 -345 164 C-349.1235919 160.44424699 -353.27212815 156.93203715 -357.5 153.5 C-361.72792863 150.06791676 -365.87520077 146.5544016 -370 143 C-376.92937679 137.03196745 -383.96592685 131.20708816 -391.125 125.515625 C-392.135625 124.70609375 -393.14625 123.8965625 -394.1875 123.0625 C-395.57001953 121.96615234 -395.57001953 121.96615234 -396.98046875 120.84765625 C-397.98013672 119.93306641 -397.98013672 119.93306641 -399 119 C-399 118.34 -399 117.68 -399 117 C-397.9657917 116.69316284 -397.9657917 116.69316284 -396.91069031 116.38012695 C-355.78042732 104.17587365 -314.66528379 91.92148508 -273.5625 79.625 C-272.44237141 79.2899004 -271.32224281 78.9548008 -270.16817093 78.60954666 C-258.62643027 75.15663478 -247.08484629 71.7031994 -235.54335117 68.2494669 C-212.36837449 61.31449532 -189.19237403 54.38294732 -166.0162735 47.45173264 C-162.63671565 46.44100382 -159.25716843 45.43023951 -155.87762451 44.41946411 C-133.32692233 37.67488642 -110.77584759 30.93156268 -88.22265625 24.1953125 C-87.3318914 23.92925516 -86.44112656 23.66319782 -85.52336884 23.38907814 C-77.2772336 20.92614012 -69.03102945 18.46343305 -60.78453827 16.00168705 C-59.31582576 15.56319637 -57.8471415 15.1246111 -56.37848663 14.68592739 C-52.90140205 13.64737535 -49.42397209 12.61002112 -45.94561768 11.57572937 C-39.80468321 9.74786496 -33.66939532 7.90508467 -27.54874325 6.01024342 C-24.74920081 5.14404514 -21.94755061 4.28477797 -19.14579201 3.42577934 C-17.82635476 3.01886702 -16.5080384 2.60829963 -15.19095421 2.1938343 C-13.38636823 1.6260269 -11.57766603 1.07135137 -9.76879883 0.51733398 C-8.74732254 0.19909164 -7.72584625 -0.1191507 -6.67341614 -0.44703674 C-3.98062315 -1.00400786 -2.55327714 -0.92639263 0 0 Z " fill="#2195F2" transform="translate(449,76)"/>
<path d="M0 0 C0.66 0.33 1.32 0.66 2 1 C-7.06102365 8.86811577 -16.14308414 16.71044896 -25.26171875 24.51171875 C-27.01952918 26.01672049 -28.77564446 27.52367703 -30.53125 29.03125 C-36.70367013 34.33054426 -42.89261071 39.6089737 -49.10791016 44.85791016 C-54.84168764 49.70396642 -60.53823153 54.59313781 -66.23388672 59.48388672 C-69.15442275 61.99100985 -72.07732311 64.49537328 -75 67 C-76.16667816 67.99998659 -77.33334482 68.9999866 -78.5 70 C-103 91 -103 91 -127.5 112 C-128.07758057 112.49508057 -128.65516113 112.99016113 -129.25024414 113.50024414 C-130.41605104 114.49948396 -131.58190386 115.49867023 -132.74780273 116.49780273 C-135.67800398 119.00899461 -138.60738291 121.52113393 -141.53515625 124.03515625 C-147.70659807 129.3327656 -153.89401541 134.61015999 -160.10791016 139.85791016 C-166.43424471 145.20478197 -172.71600742 150.6035 -179 156 C-181.49954926 158.14635913 -183.99963558 160.29209058 -186.5 162.4375 C-187.06323975 162.9214624 -187.62647949 163.4054248 -188.20678711 163.90405273 C-188.74698486 164.36755127 -189.28718262 164.8310498 -189.84375 165.30859375 C-190.30974609 165.70876709 -190.77574219 166.10894043 -191.25585938 166.52124023 C-192.78252573 167.81561567 -194.39660699 169.00541256 -196.02099609 170.17480469 C-199.5297998 173.12035948 -200.65191763 176.5719135 -201.8203125 180.89453125 C-202.05807404 181.70581985 -202.29583557 182.51710846 -202.540802 183.35298157 C-203.07752178 185.19490673 -203.60435576 187.03973097 -204.12316895 188.88677979 C-205.08196809 192.29103066 -206.07166326 195.68538602 -207.06542969 199.07958984 C-209.16381826 206.26488461 -211.23178991 213.45862051 -213.2925415 220.65478516 C-214.27651608 224.08874609 -215.2633985 227.52187119 -216.25 230.95507812 C-218.16943287 237.63592647 -220.08576666 244.31766005 -222 251 C-224.20700238 247.68949644 -225.1744994 244.49252533 -226.25561523 240.71923828 C-226.47232376 239.97844025 -226.68903229 239.23764221 -226.91230774 238.47439575 C-227.63259267 236.00775453 -228.34553706 233.53905205 -229.05859375 231.0703125 C-229.56698912 229.32463833 -230.0758739 227.57910663 -230.58522034 225.83370972 C-231.9351942 221.2033055 -233.27913297 216.57117156 -234.62164307 211.93859863 C-236.72884444 204.67161511 -238.84591544 197.4074965 -240.96113968 190.14284515 C-241.74555556 187.44716203 -242.52867008 184.75110336 -243.31161499 182.05499268 C-245.92078606 173.07831301 -248.55478042 164.10989174 -251.23876953 155.15527344 C-251.62708435 153.85806146 -251.62708435 153.85806146 -252.0232439 152.53464317 C-253.25253397 148.42991995 -254.48636218 144.32665475 -255.72789001 140.22561646 C-256.16386535 138.77398773 -256.59970991 137.32231972 -257.03540039 135.87060547 C-257.41628311 134.61069794 -257.79716583 133.35079041 -258.18959045 132.05270386 C-259 129 -259 129 -259 126 C-236.38136702 114.95571233 -213.75428612 103.92947625 -191.10087585 92.95669556 C-183.23089177 89.14402698 -175.36556875 85.32176656 -167.5 81.5 C-156.16916878 75.99483038 -144.83598202 70.4945554 -133.5 65 C-117.79814942 57.38913406 -102.10212996 49.76629323 -86.40722656 42.14111328 C-80.5600185 39.30036115 -74.7125135 36.46022043 -68.86499023 33.62011719 C-65.96860248 32.21335227 -63.07228474 30.80644333 -60.17602539 29.39941406 C-53.40107033 26.10819651 -46.62565989 22.81792657 -39.84866333 19.53091431 C-36.68132233 17.99460475 -33.51423611 16.45777038 -30.34716797 14.92089844 C-28.85136355 14.19521431 -27.35543722 13.4697814 -25.859375 12.74462891 C-24.44952772 12.06125175 -23.0398453 11.37753434 -21.63034058 10.69345093 C-20.29475601 10.04531935 -18.9587692 9.39801589 -17.62234497 8.75161743 C-14.53079217 7.25174741 -11.45563147 5.7291033 -8.40576172 4.14599609 C-7.32182129 3.58605957 -6.23788086 3.02612305 -5.12109375 2.44921875 C-4.17548584 1.95123779 -3.22987793 1.45325684 -2.25561523 0.94018555 C-1.51126221 0.62992432 -0.76690918 0.31966309 0 0 Z " fill="#263153" transform="translate(382,129)"/>
<path d="M0 0 C5.05396458 3.25468922 9.77340898 6.8518579 14.5 10.5625 C16.09100295 11.81137997 17.68215069 13.06007549 19.2734375 14.30859375 C20.06331055 14.92847168 20.85318359 15.54834961 21.66699219 16.18701172 C23.85756363 17.88931221 26.06735013 19.56130565 28.2890625 21.22265625 C28.93939453 21.71499756 29.58972656 22.20733887 30.25976562 22.71459961 C31.47760304 23.6354696 32.7026303 24.54692871 33.93554688 25.44750977 C35.5703125 26.6953125 35.5703125 26.6953125 38 29 C38 33 38 33 36.38964844 34.68481445 C35.6371582 35.2387085 34.88466797 35.79260254 34.109375 36.36328125 C33.2647168 36.99516357 32.42005859 37.6270459 31.54980469 38.27807617 C30.62586914 38.94943604 29.70193359 39.6207959 28.75 40.3125 C27.80286133 41.01673096 26.85572266 41.72096191 25.87988281 42.4465332 C23.90160722 43.91645172 21.91943382 45.38113748 19.93359375 46.84082031 C16.34832666 49.47964372 12.78742858 52.14985788 9.22900391 54.82470703 C7.58195628 56.06234475 5.9332018 57.29771437 4.28271484 58.53076172 C0.17704674 61.59915666 -3.90802791 64.69028515 -7.9609375 67.828125 C-8.74694336 68.43567627 -9.53294922 69.04322754 -10.34277344 69.66918945 C-11.83108042 70.82235671 -13.31626885 71.97956352 -14.79785156 73.14135742 C-19.77981909 77 -19.77981909 77 -22 77 C-20.5237528 68.44601183 -18.13557863 60.18794719 -15.68359375 51.875 C-15.26254571 50.43686048 -14.84182078 48.99862633 -14.42140198 47.56030273 C-13.545683 44.56758268 -12.66716125 41.57570577 -11.78637695 38.58447266 C-10.65675937 34.74789065 -9.53264383 30.90972386 -8.41038418 27.07098389 C-7.54466476 24.1109223 -6.67691666 21.15145876 -5.80845833 18.19219971 C-5.3929706 16.77611033 -4.97792282 15.3598918 -4.56332207 13.94354248 C-3.98613312 11.9735029 -3.40641763 10.00422531 -2.82592773 8.03515625 C-2.4966478 6.9150415 -2.16736786 5.79492676 -1.82810974 4.64086914 C-1 2 -1 2 0 0 Z " fill="#42A1E3" transform="translate(182,302)"/>
</svg>
